<?xml version="1.0" standalone="no"?>
<!DOCTYPE svg PUBLIC "-//W3C//DTD SVG 20010904//EN"
 "http://www.w3.org/TR/2001/REC-SVG-20010904/DTD/svg10.dtd">
<svg version="1.0" xmlns="http://www.w3.org/2000/svg"
 width="640.000000pt" height="960.000000pt" viewBox="0 0 640.000000 960.000000"
 preserveAspectRatio="xMidYMid meet">

<g transform="translate(0.000000,960.000000) scale(0.100000,-0.100000)"
fill="#000000" stroke="none">
<path d="M0 4800 l0 -4800 1108 4 c609 2 1117 5 1129 7 15 3 23 13 26 32 l4
28 -50 -6 -50 -7 8 83 c5 46 8 98 8 114 0 17 3 32 8 35 4 3 10 39 13 79 4 80
8 86 67 95 25 4 39 12 39 21 0 12 -7 14 -28 8 -61 -15 -67 -12 -66 37 1 25 6
65 11 90 8 42 11 45 53 55 35 9 46 16 48 34 3 18 0 22 -15 17 -10 -3 -35 -8
-57 -12 -35 -6 -37 -5 -28 12 5 11 13 57 17 104 8 95 13 145 21 207 6 40 7 42
55 53 27 7 49 16 49 21 0 11 -5 11 -54 -1 -45 -10 -62 -4 -46 15 6 7 13 24 14
37 6 42 18 78 27 78 5 0 9 6 9 13 0 7 14 18 31 24 17 7 33 21 36 32 3 12 10
21 15 21 21 0 -8 196 -33 226 -15 18 -14 71 0 88 7 8 10 19 7 24 -3 5 8 12 24
16 35 6 41 29 8 24 -21 -3 -23 1 -26 50 -2 37 2 57 13 68 8 9 15 21 15 29 0 7
9 15 20 18 12 3 20 14 20 26 0 16 -6 21 -27 21 l-28 0 25 13 c25 12 42 67 22
67 -16 0 -22 44 -12 82 10 35 29 51 60 52 8 1 16 11 18 23 2 13 9 23 17 23 7
0 26 11 42 24 20 16 47 26 92 31 l63 7 -7 -32 c-7 -32 -7 -33 21 -26 39 10 55
25 53 50 -6 72 -1 83 47 100 26 9 50 13 54 11 4 -3 11 2 14 11 5 14 1 16 -31
10 -21 -3 -47 -8 -58 -12 -18 -4 -20 0 -19 43 1 66 14 86 68 102 25 7 47 16
47 20 12 57 3 60 -77 36 -27 -8 -57 -15 -66 -15 -17 0 -34 34 -30 57 2 7 -2
21 -7 31 -15 28 15 80 55 97 32 13 42 35 35 78 0 4 3 7 8 7 6 0 8 9 6 20 -3
17 14 30 50 36 29 5 55 17 55 26 0 7 -13 8 -32 4 -18 -4 -47 -10 -65 -13 l-32
-6 6 54 c7 60 15 69 83 84 35 8 47 16 54 37 5 15 7 31 3 34 -7 8 -146 -25
-164 -39 -7 -5 -13 -28 -13 -52 0 -23 -3 -77 -6 -119 -7 -72 -8 -76 -28 -69
-12 3 -30 6 -42 5 -23 -2 -35 19 -54 87 -8 32 -7 55 5 107 8 36 12 70 9 75 -3
6 -1 16 6 24 15 17 2 25 -57 33 -53 8 -78 35 -88 94 -7 35 -6 37 26 45 48 13
52 36 4 27 -36 -7 -38 -6 -32 17 4 13 7 42 7 64 0 36 4 43 35 59 21 11 35 27
35 38 0 20 -16 23 -54 8 -14 -5 -46 -12 -70 -15 -37 -5 -48 -3 -67 16 -18 18
-21 29 -15 73 3 28 6 66 6 84 0 18 6 34 12 36 7 3 67 18 133 36 111 29 236 63
620 170 82 23 153 46 156 52 3 5 37 18 75 28 38 11 119 33 179 50 197 56 279
78 317 85 l37 7 -10 -37 c-15 -53 -16 -81 -23 -445 -3 -179 -8 -424 -11 -545
-3 -121 -10 -510 -15 -865 -26 -1708 -30 -1945 -36 -2077 l-6 -143 1286 0
1286 0 0 4800 0 4800 -867 0 c-517 0 -862 -4 -854 -9 8 -5 18 -31 21 -58 8
-48 71 -357 110 -533 12 -52 19 -102 17 -112 -3 -10 -2 -16 3 -13 4 2 11 -73
15 -168 10 -256 13 -314 24 -522 6 -104 13 -251 16 -325 18 -444 26 -632 35
-803 5 -106 12 -264 15 -352 3 -88 12 -299 20 -470 8 -170 19 -420 25 -555 6
-135 13 -274 15 -310 2 -36 9 -193 14 -350 6 -157 16 -346 21 -420 14 -176 31
-572 25 -578 -2 -2 -48 83 -101 190 -73 146 -95 200 -89 214 10 22 10 21 1 57
-6 25 -3 29 34 46 37 16 39 19 19 24 -12 3 -31 2 -41 -4 -16 -9 -18 -5 -18 32
0 31 3 40 14 36 19 -8 36 12 36 43 -1 74 -32 94 -96 61 -52 -26 -94 -36 -94
-22 0 6 5 11 10 11 6 0 10 20 10 45 0 38 -18 82 -100 248 -75 153 -100 213
-101 247 -2 25 -6 50 -11 56 -5 7 -2 16 7 24 13 10 13 16 0 47 -11 26 -15 89
-15 274 -1 131 -4 239 -7 239 -3 0 -32 -7 -65 -16 -33 -8 -67 -14 -76 -12 -9
2 26 14 78 27 52 13 97 26 99 28 2 1 -4 12 -13 22 -15 16 -19 45 -23 160 -5
147 2 181 36 181 21 0 44 23 34 33 -3 4 -1 7 6 7 8 0 11 8 8 20 -4 14 0 20 11
20 15 0 15 2 2 10 -13 9 -13 11 0 20 55 34 57 39 53 93 -2 29 -8 61 -13 72
-25 61 -32 86 -26 100 3 9 2 14 -3 11 -12 -8 -35 50 -27 70 4 9 13 14 21 10 8
-3 15 -1 15 5 0 6 7 9 15 5 8 -3 15 -2 15 3 0 4 14 8 32 9 37 1 52 19 32 39
-16 16 -34 9 -34 -13 0 -8 -10 -14 -23 -14 -13 0 -28 -5 -34 -11 -8 -8 -13 -8
-18 1 -5 8 -11 6 -20 -7 -17 -24 -39 -6 -58 50 -8 23 -18 50 -22 60 -6 14 -2
17 19 17 14 0 26 4 26 9 0 4 16 7 35 5 40 -3 52 8 30 26 -13 11 -20 11 -39 0
-13 -7 -29 -9 -35 -6 -6 4 -11 1 -11 -6 0 -8 -9 -14 -19 -15 -19 -2 -31 15
-37 52 -14 83 -13 93 1 99 8 3 15 10 15 15 0 13 -78 91 -91 91 -6 0 -7 5 -4
10 4 6 10 8 15 5 5 -3 11 -1 14 4 4 5 22 8 41 5 38 -5 44 5 19 31 -14 13 -19
14 -33 2 -13 -11 -66 -37 -75 -37 -1 0 -13 24 -26 53 -13 28 -47 102 -77 162
-49 104 -60 136 -62 178 -1 9 -7 17 -13 17 -7 1 -28 33 -46 72 -29 62 -32 76
-23 102 11 31 11 30 7 -9 -4 -34 -3 -37 6 -17 10 20 18 22 90 22 l78 0 0 120
0 120 80 0 80 0 0 80 0 80 40 0 40 0 0 360 0 360 -60 0 -60 0 0 40 0 40 60 0
60 0 0 120 0 120 -40 0 -40 0 0 120 0 120 40 0 40 0 0 80 0 80 -2080 0 -2080
0 0 -80 0 -80 40 0 40 0 0 -80 0 -80 40 0 40 0 0 -40 c0 -40 0 -40 40 -40 l39
0 3 -282 c3 -333 2 -358 -18 -358 -11 0 -14 6 -9 23 5 19 4 20 -5 4 -8 -12
-19 -16 -41 -12 -21 4 -29 1 -29 -9 0 -13 -4 -13 -27 -1 -21 11 -29 12 -35 2
-4 -7 -8 -7 -8 -2 0 21 19 38 34 32 9 -4 16 -1 16 6 0 18 -50 15 -51 -3 0 -10
-2 -11 -6 -2 -9 22 -25 13 -18 -10 7 -22 7 -22 -8 -3 -8 10 -13 25 -10 32 4 9
0 11 -13 6 -12 -4 -15 -3 -10 5 4 7 2 12 -4 12 -7 0 -9 9 -5 23 4 16 4 18 -3
8 -8 -11 -11 -10 -16 7 -4 11 -6 24 -4 28 1 5 -3 32 -10 59 -8 36 -8 64 -1 95
6 25 11 59 11 77 0 44 25 64 45 38 14 -19 15 -19 8 5 -10 34 -13 36 -35 22
-11 -7 -20 -8 -20 -3 0 5 5 11 11 13 19 6 0 46 -29 61 -15 7 -26 18 -25 24 1
5 -3 10 -10 11 -43 4 -75 19 -99 44 -14 15 -30 28 -36 28 -13 0 -36 85 -29
111 9 32 -3 84 -15 67 -6 -8 -7 -1 -3 22 3 19 10 68 15 108 6 41 17 80 25 88
8 9 15 17 15 20 0 2 -43 4 -95 4 l-95 0 0 -4800z m3940 4631 c0 -6 -4 -13 -10
-16 -5 -3 -10 1 -10 9 0 9 5 16 10 16 6 0 10 -4 10 -9z m40 -62 c0 -5 -9 -9
-19 -9 -14 0 -18 5 -14 20 4 16 8 18 19 9 8 -6 14 -15 14 -20z m-3833 -61 c-3
-8 -6 -5 -6 6 -1 11 2 17 5 13 3 -3 4 -12 1 -19z m3473 -202 c0 -19 -27 -39
-40 -31 -8 5 -6 13 7 25 22 23 33 25 33 6z m70 -56 c0 -5 -12 -10 -26 -10 -14
0 -23 4 -19 10 3 6 15 10 26 10 10 0 19 -4 19 -10z m-168 -276 c-3 -15 -1 -16
9 -7 20 20 42 -3 26 -27 -15 -25 2 -76 25 -74 12 1 16 -6 15 -25 -2 -14 25
-86 59 -161 34 -75 69 -153 78 -174 14 -34 17 -36 32 -22 8 9 20 16 26 16 6 0
9 3 5 6 -9 9 19 34 39 34 9 0 23 8 30 17 7 10 15 16 18 13 7 -8 7 -167 0 -223
-5 -37 -12 -51 -28 -57 -12 -5 -15 -9 -8 -9 21 -1 14 -41 -7 -41 -28 0 -35
-17 -17 -42 14 -20 21 -18 17 5 -1 5 3 6 9 2 11 -7 12 -106 1 -144 -5 -17 -19
-29 -48 -38 -34 -12 -42 -19 -46 -46 -7 -45 14 -137 31 -137 10 0 12 -8 8 -27
-5 -25 -15 -271 -31 -743 -3 -85 -8 -186 -11 -225 -9 -107 1 -75 20 65 17 124
42 214 56 205 16 -10 21 77 5 107 -15 30 -22 169 -8 155 3 -4 5 -36 4 -72 -1
-40 2 -65 8 -65 7 0 11 41 10 118 -2 122 -5 146 -20 136 -5 -3 -9 0 -9 5 0 6
7 11 15 11 17 0 17 40 0 52 -6 5 -3 8 6 8 14 0 18 13 21 69 2 47 9 76 21 89
19 20 23 37 7 27 -5 -3 -20 3 -32 14 -12 12 -26 21 -31 21 -5 0 -6 21 -3 48 4
26 7 64 8 85 1 20 5 37 10 37 4 0 8 -4 8 -10 0 -5 17 -14 39 -21 l38 -11 -15
-30 c-8 -17 -17 -51 -19 -77 -4 -45 -3 -45 13 -23 9 12 23 22 32 22 18 0 41
29 42 53 0 9 2 17 4 17 2 0 11 3 20 6 27 11 19 -32 -14 -69 -16 -19 -30 -39
-30 -45 0 -6 -4 -12 -9 -14 -8 -2 -31 -585 -31 -769 0 -27 -4 -49 -10 -49 -5
0 -10 11 -10 25 0 23 -22 75 -48 112 -9 15 -6 -118 8 -286 10 -115 25 -161 55
-161 19 0 20 -53 3 -68 -22 -17 -58 5 -75 45 -9 21 -18 33 -20 26 -2 -7 1 -21
7 -33 9 -17 7 -24 -12 -40 -18 -15 -20 -22 -10 -28 7 -5 11 -15 8 -23 -2 -8
-7 -27 -11 -44 l-7 -30 22 28 c27 33 40 34 40 3 0 -26 23 -56 44 -56 9 0 12
-20 9 -77 -5 -102 0 -109 65 -90 28 8 53 12 56 10 3 -3 -1 -21 -9 -40 -8 -20
-15 -50 -15 -68 0 -31 -3 -34 -52 -51 -29 -9 -48 -19 -43 -21 6 -2 9 -19 7
-38 -3 -28 -9 -35 -33 -40 -31 -7 -35 -16 -19 -45 8 -15 17 -18 44 -13 33 5
34 4 29 -18 -3 -13 -12 -29 -20 -35 -12 -10 -11 -13 2 -18 16 -6 22 -66 6 -66
-6 0 -6 -12 -1 -29 4 -16 6 -32 3 -35 -12 -11 -37 -1156 -28 -1221 7 -42 9
-44 33 -38 22 5 24 4 17 -13 -5 -10 -11 -44 -14 -73 l-6 -55 -60 -17 c-33 -9
-143 -40 -245 -69 -102 -28 -255 -71 -340 -95 -85 -24 -247 -69 -360 -100
-113 -31 -275 -76 -360 -100 -156 -44 -179 -45 -164 -5 3 8 6 17 7 20 1 3 -3
6 -8 8 -6 2 -17 10 -27 18 -9 9 -22 14 -30 13 -51 -7 -45 16 7 25 38 7 55 33
55 81 0 19 9 26 47 39 62 21 73 20 73 -6 0 -21 0 -21 15 -2 15 18 15 17 13
-13 -2 -18 2 -33 7 -33 11 0 12 4 14 53 1 32 3 34 61 50 48 14 60 21 60 37 0
11 -4 20 -10 20 -5 0 -10 4 -10 10 0 5 6 9 13 7 8 -1 13 15 15 52 3 46 1 53
-13 47 -9 -3 -22 -6 -28 -6 -7 -1 -1 -7 12 -14 l24 -13 -30 -11 c-34 -11 -60
-1 -48 19 6 9 3 11 -9 6 -14 -6 -17 -3 -12 9 3 8 6 37 6 64 0 38 4 50 18 54 9
3 36 10 60 16 25 6 42 17 42 26 0 15 -35 12 -72 -7 -37 -20 -43 -12 -38 48 l5
57 56 19 c49 16 58 23 63 49 8 41 7 101 -2 113 -10 14 -32 17 -32 4 0 -5 -4
-8 -8 -5 -5 3 -21 -2 -36 -9 -16 -8 -32 -12 -37 -9 -6 3 -21 -2 -34 -10 -14
-9 -25 -14 -25 -10 0 4 -7 1 -15 -6 -8 -7 -22 -10 -30 -6 -8 3 -15 1 -15 -5 0
-6 -4 -8 -9 -5 -15 10 -40 -29 -43 -67 -1 -21 -6 -41 -11 -44 -14 -9 6 102 21
113 8 5 16 31 19 57 6 53 15 61 81 72 29 5 42 3 42 -5 0 -6 5 -8 11 -4 7 4 10
-5 7 -29 -5 -56 16 -44 27 15 l10 52 54 16 c30 8 56 21 59 28 5 16 -16 15 -68
-3 -23 -8 -45 -15 -49 -15 -3 0 -5 21 -3 46 4 44 6 46 51 66 25 11 54 20 63
21 13 1 19 14 24 53 3 29 4 58 2 65 -2 7 3 29 13 48 19 39 16 55 -4 27 -7 -10
-28 -18 -47 -19 -43 -2 -52 24 -19 59 12 13 20 27 16 30 -10 10 -330 -89 -335
-103 -2 -7 3 -13 12 -13 42 0 23 -61 -26 -81 -27 -11 -29 -15 -23 -53 4 -23 9
-49 12 -60 3 -13 1 -16 -7 -11 -9 6 -11 -14 -7 -81 4 -62 3 -77 -3 -49 -6 29
-7 10 -5 -65 2 -64 0 -85 -4 -55 l-6 50 -7 -73 c-4 -40 -5 -94 -4 -120 2 -26
1 -33 -2 -17 -3 18 -14 -45 -28 -155 -25 -207 -28 -244 -15 -236 9 6 3 -102
-9 -142 l-8 -27 -1 25 c-1 17 -4 21 -10 12 -5 -8 -11 17 -15 64 -3 43 -2 80 3
83 4 3 10 21 13 39 3 23 1 32 -9 32 -8 0 -11 5 -8 10 4 6 11 8 16 5 5 -4 9 2
9 12 0 22 -49 43 -98 43 -42 0 -72 31 -72 73 0 27 5 35 30 44 23 9 30 18 30
37 0 14 -6 26 -12 26 -9 1 -8 5 3 13 9 7 18 33 21 59 5 44 4 46 -13 35 -11 -7
-19 -20 -19 -30 0 -10 -5 -15 -10 -12 -6 4 -8 11 -4 16 3 5 1 16 -6 23 -6 8
-8 26 -4 40 5 20 2 26 -10 26 -32 0 2 39 44 50 36 10 58 26 48 35 -2 2 -22 -2
-43 -10 -49 -17 -68 -19 -59 -4 4 7 7 25 6 40 -1 32 5 38 68 59 44 16 45 17
54 74 7 41 6 63 -2 77 -9 15 -9 17 2 13 7 -3 16 3 19 13 2 10 8 27 13 38 7 18
6 18 -20 -3 -33 -26 -71 -29 -80 -6 -7 18 -2 29 27 62 11 12 17 22 14 22 -4 0
-61 -16 -127 -35 -111 -33 -124 -35 -177 -25 -32 5 -64 17 -72 25 -16 16 -27
110 -17 150 4 15 13 25 25 25 39 0 81 22 81 42 0 28 18 58 35 58 18 0 18 -1 4
38 l-10 30 -45 -15 c-40 -14 -48 -14 -79 1 -19 9 -37 21 -40 26 -3 6 -18 10
-33 10 -75 1 -112 98 -92 243 6 43 8 82 5 88 -4 5 -1 16 5 24 13 16 5 35 -14
35 -8 0 -19 7 -26 15 -7 8 -26 15 -42 15 -33 0 -70 35 -95 90 -21 44 -19 155
2 177 18 17 20 27 3 17 -8 -5 -10 7 -5 44 5 45 3 53 -13 62 -11 6 -20 17 -20
24 0 8 -10 11 -31 8 -17 -2 -41 1 -54 8 -26 14 -51 63 -40 79 3 6 1 11 -4 11
-6 0 -11 19 -10 43 0 69 24 229 32 221 4 -4 7 2 7 14 0 12 -5 22 -11 22 -5 0
-7 5 -3 12 5 8 2 9 -10 5 -11 -5 -28 1 -44 14 -25 21 -26 22 -4 16 12 -3 22 0
22 5 0 10 -22 8 -82 -7 -21 -5 -29 -1 -47 31 -12 20 -29 65 -37 101 -13 57
-13 69 1 109 8 24 15 53 15 62 0 10 5 23 12 30 8 8 8 15 -2 27 -7 9 -8 15 -2
15 13 0 26 -36 18 -49 -7 -10 19 -23 28 -14 12 13 5 40 -14 58 -20 19 -28 41
-10 30 6 -3 10 0 11 7 0 10 2 10 6 1 2 -7 12 -13 20 -13 12 0 14 7 9 30 -3 19
-2 29 4 25 6 -3 10 -13 10 -21 0 -8 5 -14 10 -14 16 0 11 -35 -8 -56 -20 -22
-18 -64 4 -64 10 0 14 12 14 40 0 46 10 51 28 13 15 -33 16 -53 2 -53 -5 0
-10 -18 -10 -40 0 -38 2 -40 30 -40 28 0 30 -2 30 -40 0 -22 -4 -40 -10 -40
-11 0 -14 -49 -4 -74 3 -8 12 -12 20 -9 9 3 14 -1 14 -12 0 -9 7 -24 16 -32
12 -12 12 -18 3 -23 -15 -10 -3 -30 17 -30 8 0 12 5 9 10 -3 6 -2 10 3 10 5 0
12 -24 15 -52 4 -42 2 -56 -11 -67 -13 -10 -14 -15 -4 -18 6 -3 12 -16 12 -29
l0 -25 113 2 c88 2 119 -1 144 -14 31 -17 81 -17 131 -2 16 6 22 3 22 -9 0
-10 6 -13 16 -9 8 3 13 11 10 19 -3 7 2 18 11 25 8 7 19 24 25 38 7 19 11 22
17 12 7 -11 13 -9 30 8 12 12 19 26 16 31 -4 6 1 10 11 10 9 0 22 7 28 15 9
12 18 13 45 5 26 -7 39 -6 50 4 17 14 41 11 53 -8 4 -6 9 -8 11 -6 7 10 60
396 59 434 -1 23 -14 64 -32 97 -32 60 -32 62 13 73 29 7 36 23 12 32 -10 4
-13 14 -9 30 l6 24 -42 -15 c-55 -20 -54 -20 -67 15 -6 17 -7 28 -2 24 8 -4
13 37 12 84 -1 6 7 12 17 12 18 0 40 56 40 103 0 20 4 25 16 20 8 -3 25 -1 37
5 29 13 105 38 140 46 19 5 28 13 26 24 -3 33 1 40 27 46 15 4 24 9 22 12 -3
2 -17 0 -32 -6 -24 -9 -27 -8 -24 7 2 13 42 31 143 66 77 27 190 66 250 87 61
21 178 62 260 90 419 144 785 273 781 277 -4 4 -612 -202 -861 -292 -234 -84
-588 -205 -601 -205 -8 0 -11 6 -8 15 4 8 0 22 -7 31 -10 12 -10 17 -1 23 19
12 28 101 11 112 -11 7 -10 9 4 9 14 0 17 5 11 23 -4 12 -11 25 -17 29 -6 4 1
10 15 13 15 4 31 4 37 1 5 -4 15 2 21 11 8 13 13 14 16 6 3 -7 14 -13 24 -13
28 0 51 -11 44 -21 -3 -5 -1 -9 4 -9 6 0 12 6 15 14 5 12 13 13 43 4 64 -17
96 -4 155 64 29 34 63 71 74 83 18 19 187 202 244 264 27 30 154 165 217 232
48 50 53 65 27 72 -16 3 -16 5 2 12 11 5 23 13 27 19 5 8 13 7 27 -1 15 -10
28 -8 67 7 27 11 41 19 32 20 -10 0 -18 2 -18 5 0 11 44 54 51 49 4 -2 10 0
14 6 3 5 -1 10 -9 10 -21 0 -78 -63 -65 -71 6 -3 3 -8 -8 -11 -10 -3 -26 -9
-35 -13 -13 -5 -17 -2 -15 13 0 12 4 19 8 16 4 -2 17 8 28 23 11 16 26 34 32
42 7 7 12 26 11 42 -1 24 4 30 31 37 18 5 31 14 30 21 -2 6 3 11 10 11 8 0 7
4 -3 11 -13 9 -13 10 0 6 8 -2 14 -13 12 -23z m73 -33 c2 -19 0 -31 -6 -29 -6
2 -10 7 -10 11 1 4 1 19 1 34 0 35 10 24 15 -16z m34 -83 c0 -18 -3 -26 -6
-18 -3 8 -12 23 -21 33 -14 15 -13 17 6 17 18 0 22 -6 21 -32z m41 -11 c0 -2
-9 -12 -20 -22 -24 -21 -27 -14 -4 9 15 15 24 20 24 13z m5 -76 c-3 -6 -11
-11 -16 -11 -5 0 -4 6 3 14 14 16 24 13 13 -3z m-3055 -21 c20 -6 22 -9 9 -14
-17 -7 -15 -46 1 -46 13 0 -1 -40 -14 -41 -6 0 -3 -4 7 -7 16 -7 16 -9 -3 -25
-19 -16 -20 -16 -20 18 0 19 5 35 10 35 17 0 11 20 -14 45 -21 21 -22 25 -8
29 10 3 5 4 -10 2 -15 -2 -25 1 -22 5 6 10 29 10 64 -1z m3115 -105 c10 0 19
-6 21 -13 1 -7 0 -8 -2 -3 -3 6 -12 7 -21 4 -16 -6 -33 13 -32 37 0 10 3 8 8
-5 4 -11 16 -20 26 -20z m16 17 c-7 -2 -18 1 -23 6 -8 8 -4 9 13 5 13 -4 18
-8 10 -11z m69 8 c0 -5 -4 -10 -10 -10 -5 0 -10 5 -10 10 0 6 5 10 10 10 6 0
10 -4 10 -10z m-3154 -70 c10 0 14 -12 14 -40 l0 -40 60 0 60 0 0 -40 c0 -22
-4 -40 -10 -40 -5 0 -10 -18 -10 -40 0 -22 5 -40 10 -40 6 0 10 -23 9 -55 -2
-50 -4 -54 -18 -41 -9 8 -29 14 -44 13 l-28 -2 27 -23 c14 -13 29 -20 32 -17
3 3 -3 12 -14 20 -17 13 -17 14 -2 15 15 0 31 -26 27 -46 -3 -21 2 -28 11 -14
8 13 10 12 10 -2 0 -26 -13 -22 -48 12 -18 17 -42 30 -54 30 -13 1 -40 16 -62
34 -36 31 -39 39 -52 117 -7 45 -10 88 -5 94 4 5 8 26 10 45 2 35 17 54 35 43
5 -4 7 1 3 11 -6 14 -3 17 9 12 8 -3 22 -6 30 -6z m3245 -31 c-5 -13 -10 -19
-10 -12 -1 15 10 45 15 40 3 -2 0 -15 -5 -28z m-101 -24 c-7 -9 -15 -13 -17
-11 -7 7 7 26 19 26 6 0 6 -6 -2 -15z m147 -31 c-3 -3 -12 -4 -19 -1 -8 3 -5
6 6 6 11 1 17 -2 13 -5z m26 -65 c4 -15 2 -19 -9 -15 -8 3 -14 0 -14 -6 0 -6
-3 -9 -6 -6 -5 6 12 48 20 48 2 0 6 -9 9 -21z m1 -104 c-4 -8 -11 -12 -16 -9
-6 4 -5 10 3 15 19 12 19 11 13 -6z m64 3 c-2 -6 -10 -14 -16 -16 -7 -2 -10 2
-6 12 7 18 28 22 22 4z m-53 -36 c-4 -15 2 -21 27 -29 33 -11 33 -11 6 -12
-16 -1 -28 -6 -28 -13 0 -18 -10 -3 -15 21 -4 22 3 51 12 51 2 0 2 -8 -2 -18z
m162 -14 c-3 -8 -6 -5 -6 6 -1 11 2 17 5 13 3 -3 4 -12 1 -19z m-53 -55 c-6
-23 -5 -24 15 -14 11 7 21 10 21 7 0 -2 3 -13 6 -23 5 -15 4 -15 -5 -3 -8 12
-13 12 -22 3 -10 -10 -15 -9 -24 4 -13 17 -8 66 6 57 5 -3 6 -17 3 -31z m-167
-30 c-3 -10 -5 -2 -5 17 0 19 2 27 5 18 2 -10 2 -26 0 -35z m95 -37 c-6 -20
-6 -20 -12 4 -8 29 -1 48 10 30 4 -7 5 -22 2 -34z m58 31 c0 -2 -9 -14 -20
-27 -11 -13 -20 -18 -20 -12 0 6 7 18 16 26 15 15 24 20 24 13z m26 -63 c-5
-13 -10 -14 -18 -6 -6 6 -8 18 -4 28 5 13 10 14 18 6 6 -6 8 -18 4 -28z
m-3305 -24 c5 0 9 -18 9 -40 0 -33 3 -40 20 -40 17 0 20 -7 20 -40 0 -38 2
-40 30 -40 28 0 30 -2 30 -41 0 -22 4 -38 9 -34 16 9 22 -12 11 -39 -7 -21 -6
-26 5 -26 10 0 15 10 15 30 0 17 5 30 10 30 6 0 10 -18 10 -39 0 -29 -6 -44
-21 -54 -14 -11 -17 -17 -9 -22 9 -6 9 -9 -1 -15 -10 -7 -9 -11 3 -23 12 -12
18 -13 27 -4 9 9 14 8 21 -3 15 -23 12 -34 -5 -20 -23 19 -18 -4 5 -25 18 -16
20 -16 20 -2 0 10 5 17 10 17 6 0 10 9 10 20 0 11 5 20 10 20 6 0 10 -11 10
-25 0 -15 -6 -25 -14 -25 -8 0 -16 -7 -20 -15 -3 -8 -1 -15 4 -15 6 0 10 -5
10 -10 0 -7 -7 -7 -21 0 -27 15 -32 9 -18 -26 10 -27 12 -28 20 -9 9 20 3 -75
-7 -125 -8 -37 7 -17 16 22 8 31 8 32 9 6 1 -16 5 -28 10 -28 11 0 3 60 -10
77 -7 7 -6 14 2 19 7 4 9 3 6 -3 -4 -6 3 -13 14 -16 19 -5 21 -11 15 -41 -6
-29 -4 -36 9 -36 8 0 15 -5 15 -11 0 -5 5 -7 11 -3 8 5 10 -4 7 -30 -3 -25 0
-36 9 -36 8 0 13 -14 13 -40 0 -22 5 -40 10 -40 6 0 10 -15 10 -34 0 -26 5
-35 21 -39 18 -5 19 -8 8 -20 -8 -8 -21 -12 -29 -9 -23 8 -64 42 -51 42 6 0
11 5 11 11 0 7 -10 5 -25 -5 -27 -18 -55 -21 -55 -7 0 6 -12 16 -26 23 -39 19
-56 78 -44 153 5 33 11 101 14 151 4 87 3 93 -20 113 -13 11 -24 19 -24 16 0
-3 -11 2 -25 11 -13 8 -32 13 -42 10 -13 -4 -23 3 -35 25 -10 17 -18 37 -18
45 0 8 -4 14 -9 14 -5 0 -16 23 -26 52 -13 39 -14 53 -5 56 8 3 9 7 2 11 -11
7 6 134 21 158 4 6 3 14 -3 18 -5 3 -9 14 -9 23 1 15 2 15 6 0 2 -10 9 -18 14
-18z m3236 -2 c-3 -7 -5 -2 -5 12 0 14 2 19 5 13 2 -7 2 -19 0 -25z m-42 -86
c-5 -32 -12 -46 -31 -54 -30 -14 -42 -4 -23 18 8 10 10 19 4 21 -5 1 -8 25 -7
51 3 42 7 50 30 58 25 9 27 8 30 -20 2 -17 1 -50 -3 -74z m72 78 c1 -11 -2
-20 -8 -20 -5 0 -9 9 -9 20 0 11 4 20 8 20 4 0 8 -9 9 -20z m40 -56 c3 -9 0
-20 -7 -24 -7 -4 -9 -13 -5 -20 6 -9 10 -9 17 1 7 11 8 9 4 -4 -3 -10 -6 -26
-6 -35 -1 -9 -9 -1 -18 18 -18 35 -18 80 -1 80 6 0 12 -7 16 -16z m40 -31 c1
-24 0 -25 -6 -8 -7 17 -6 35 2 35 2 0 3 -12 4 -27z m-1787 -274 c0 -6 -4 -7
-10 -4 -5 3 -10 11 -10 16 0 6 5 7 10 4 6 -3 10 -11 10 -16z m-1270 -119 c0
-16 -4 -30 -10 -30 -11 0 -14 43 -3 53 11 12 13 8 13 -23z m1050 -50 c0 -5 -4
-10 -10 -10 -5 0 -10 5 -10 10 0 6 5 10 10 10 6 0 10 -4 10 -10z m1685 -109
c3 -5 1 -12 -5 -16 -5 -3 -10 1 -10 9 0 18 6 21 15 7z m5 -65 c0 -3 -4 -8 -10
-11 -5 -3 -10 -1 -10 4 0 6 5 11 10 11 6 0 10 -2 10 -4z m-1858 -221 c2 -21
-30 -29 -57 -15 -24 13 -25 15 -8 22 24 9 63 6 65 -7z m1846 -40 c-3 -3 -9 2
-12 12 -6 14 -5 15 5 6 7 -7 10 -15 7 -18z m-2130 -21 c20 -14 0 -28 -28 -19
-23 7 -26 25 -8 43 10 10 14 10 17 0 2 -7 11 -18 19 -24z m-168 6 c13 -9 13
-11 0 -20 -30 -20 -71 -5 -55 20 8 13 36 13 55 0z m605 -110 c0 -42 -25 -49
-36 -10 -4 14 -7 21 -8 16 -1 -5 -8 -3 -16 4 -20 16 -5 27 33 26 24 -1 27 -5
27 -36z m-369 -29 c31 -41 33 -46 19 -60 -13 -13 -17 -14 -24 -3 -5 8 -11 13
-15 13 -19 -3 -26 0 -26 13 0 7 -11 25 -25 40 -32 35 -32 42 5 41 24 0 38 -10
66 -44z m414 -63 c0 -26 -24 -18 -28 10 -3 16 1 20 12 16 9 -3 16 -15 16 -26z
m1959 5 c25 -24 41 -57 41 -84 0 -29 -12 -16 -27 29 -11 31 -12 32 -8 7 5 -30
5 -30 -9 -6 l-13 24 -5 -31 c-2 -17 1 -41 8 -54 16 -28 17 -38 5 -38 -13 0
-20 25 -27 93 -7 77 2 91 35 60z m-2424 -3 c3 -5 -3 -10 -14 -10 -12 0 -21 5
-21 10 0 6 6 10 14 10 8 0 18 -4 21 -10z m354 -84 c9 -11 6 -12 -14 -8 -14 2
-25 8 -25 13 0 14 26 11 39 -5z m63 -75 c16 9 23 9 26 0 2 -6 7 -9 12 -6 4 3
6 -4 3 -15 -7 -25 -15 -25 -76 -2 -42 16 -46 20 -33 32 9 7 16 20 16 29 1 9 7
1 15 -17 13 -30 16 -32 37 -21z m-294 -8 c2 -15 8 -19 23 -16 10 3 26 -1 35
-8 13 -10 17 -10 24 2 8 12 12 11 27 -3 16 -17 16 -18 -7 -18 -14 0 -31 -9
-38 -20 -8 -13 -23 -20 -41 -20 -26 0 -30 4 -36 40 -4 22 -11 40 -16 40 -5 0
-9 7 -9 16 0 24 34 12 38 -13z m2412 -92 c0 -11 -4 -10 -15 5 -8 10 -14 26
-14 34 0 11 3 10 14 -4 8 -11 15 -27 15 -35z m-2303 13 c-3 -3 -12 -4 -19 -1
-8 3 -5 6 6 6 11 1 17 -2 13 -5z m2047 -31 c-7 -21 -13 -48 -14 -61 0 -20 -24
-41 -35 -30 -2 2 3 26 12 53 9 28 18 56 19 63 2 6 10 12 18 12 12 0 12 -6 0
-37z m407 -38 c-6 -34 -8 -37 -14 -18 -9 25 2 78 13 66 5 -4 5 -26 1 -48z
m-211 2 c0 -4 -6 -2 -14 5 -8 7 -12 17 -9 22 5 8 23 -12 23 -27z m73 -27 l6
-35 -19 40 c-22 48 -25 64 -6 45 7 -8 16 -31 19 -50z m-43 -8 c0 -9 5 -24 11
-32 8 -12 9 -9 4 10 -6 24 -5 24 9 6 17 -20 22 -56 9 -56 -25 1 -53 45 -50 78
1 24 17 19 17 -6z m188 -63 c0 -27 -3 -37 -9 -28 -12 19 -11 69 0 69 6 0 9
-19 9 -41z m-317 -59 c12 -30 31 -68 42 -84 16 -22 17 -30 7 -36 -9 -5 -11
-23 -7 -56 3 -34 2 -43 -5 -30 -5 9 -11 43 -12 74 -1 36 -10 72 -24 97 -18 35
-21 37 -22 16 0 -15 -4 -21 -9 -15 -4 5 -6 28 -3 52 2 24 5 42 7 40 1 -2 13
-28 26 -58z m319 -85 c0 -8 -4 -15 -10 -15 -5 0 -7 7 -4 15 4 8 8 15 10 15 2
0 4 -7 4 -15z m-241 -77 c6 -18 7 -28 2 -23 -10 12 -25 55 -18 55 3 0 10 -15
16 -32z m161 16 c0 -8 -5 -12 -10 -9 -6 4 -8 11 -5 16 9 14 15 11 15 -7z m67
-6 c-3 -8 -6 -5 -6 6 -1 11 2 17 5 13 3 -3 4 -12 1 -19z m-10 -50 c-3 -8 -6
-5 -6 6 -1 11 2 17 5 13 3 -3 4 -12 1 -19z m25 -86 c2 -34 2 -62 0 -62 -12 0
-20 62 -14 113 7 64 9 56 14 -51z m-194 25 c14 -20 22 -40 19 -43 -4 -4 -12 5
-18 20 -18 38 -32 32 -27 -14 2 -22 0 -36 -4 -32 -4 4 -8 21 -9 37 -4 45 2
102 8 85 3 -8 17 -32 31 -53z m192 -162 c0 -8 -4 -15 -9 -15 -5 0 -11 7 -15
15 -3 9 0 15 9 15 8 0 15 -7 15 -15z m-387 -27 c-6 -31 -18 -47 -35 -48 -13 0
-9 30 8 55 23 35 35 31 27 -7z m-2155 -600 c-4 -46 -28 -49 -28 -4 0 26 4 36
16 36 11 0 14 -8 12 -32z m748 -453 c-7 -41 -9 -43 -50 -54 -24 -6 -51 -13
-60 -17 -11 -4 -16 -1 -16 14 0 15 5 18 26 14 20 -4 25 -1 22 9 -7 20 10 49
28 49 11 0 13 6 9 19 -4 15 0 20 17 23 29 4 32 -3 24 -57z m-219 3 c-3 -7 -5
-2 -5 12 0 14 2 19 5 13 2 -7 2 -19 0 -25z m-323 -145 c-3 -32 -7 -59 -8 -60
0 -1 -13 -4 -28 -8 -23 -6 -29 -2 -43 25 -9 17 -13 39 -10 50 5 14 51 39 93
49 2 1 0 -25 -4 -56z m616 -57 c0 -2 -8 -10 -17 -17 -16 -13 -17 -12 -4 4 13
16 21 21 21 13z m-114 -56 c8 0 14 -6 14 -12 0 -9 4 -8 10 2 5 8 10 11 10 5 0
-5 5 -3 10 5 8 11 9 9 8 -12 -2 -21 -6 -27 -19 -23 -9 3 -24 -1 -32 -10 -20
-20 -25 -10 -24 45 0 25 2 35 4 23 3 -13 11 -23 19 -23z m29 30 c3 -5 4 -10 1
-10 -2 0 -11 -2 -19 -5 -8 -4 -14 0 -14 10 0 17 22 21 32 5z m-238 -77 c-3
-10 -5 -2 -5 17 0 19 2 27 5 18 2 -10 2 -26 0 -35z m222 -52 c11 -7 12 -25 7
-87 -4 -44 -12 -99 -17 -123 -7 -34 -7 -46 3 -52 7 -4 9 -11 5 -15 -4 -4 -16
1 -26 10 -19 17 -21 17 -45 -1 -26 -19 -33 -33 -16 -33 6 0 10 -6 10 -14 0 -8
-10 -13 -25 -13 -13 0 -22 3 -19 8 9 15 -8 10 -29 -8 -19 -17 -19 -17 -13 5 5
15 3 22 -6 22 -8 1 -4 8 10 19 16 14 22 30 22 58 0 50 5 56 72 76 39 12 55 22
52 31 -4 10 -16 9 -61 -6 -31 -10 -58 -18 -60 -18 -5 0 -3 55 3 89 5 26 13 33
53 45 57 17 63 18 80 7z m-245 -151 l-13 -85 5 70 c5 67 13 110 19 103 1 -2
-3 -41 -11 -88z m-10 -132 c-4 -24 -11 -52 -16 -63 -7 -17 -8 -16 -3 5 2 14 5
42 5 63 0 20 5 37 10 37 6 0 8 -16 4 -42z m229 -20 c-2 -5 -11 -8 -19 -8 -17
0 -18 -8 -1 -24 11 -11 17 -11 33 3 11 9 18 23 16 33 -2 9 2 20 9 24 9 5 11 1
7 -14 -4 -12 -2 -25 3 -28 5 -3 9 1 9 9 0 10 7 13 19 10 20 -5 38 -33 21 -33
-5 0 -11 -8 -13 -17 -4 -15 -5 -15 -6 2 -2 30 -41 28 -41 -2 0 -19 -5 -22 -27
-21 -14 2 -28 -2 -30 -9 -3 -7 -16 -8 -38 -3 -24 5 -35 4 -35 -4 0 -6 -4 -5
-9 3 -5 7 -13 11 -19 7 -9 -5 -9 2 -2 34 0 3 6 -2 13 -10 17 -22 37 -23 37 -2
0 10 3 13 8 6 4 -6 15 -11 25 -11 12 0 14 4 7 11 -13 13 -13 59 0 51 6 -3 10
1 10 10 0 13 2 14 14 3 8 -7 12 -16 9 -20z m2517 -650 c1 -18 3 -58 5 -88 14
-190 62 -1233 57 -1243 -2 -5 -16 10 -30 33 -25 42 -25 47 -43 469 -11 234
-18 467 -17 517 1 50 -2 96 -6 102 -4 6 1 26 10 44 12 24 14 36 6 49 -11 17
-14 125 -5 142 10 18 23 4 23 -25z m80 -1672 c0 -16 57 -1292 63 -1393 1 -35
0 -63 -3 -63 -7 0 -20 188 -45 660 -22 409 -35 650 -40 699 -4 53 4 111 16
111 5 0 9 -6 9 -14z m-3255 -314 c-3 -3 -5 1 -5 9 0 12 -2 11 -11 -1 -9 -12
-10 -12 -5 3 3 10 6 24 7 30 0 7 5 1 10 -12 5 -13 7 -26 4 -29z m-130 -1012
c5 -18 4 -22 -4 -14 -6 6 -14 21 -16 34 -6 30 10 14 20 -20z m-534 -346 c6 -7
6 -21 0 -35 -8 -21 -16 -12 -12 14 0 4 -4 7 -9 7 -6 0 -9 12 -6 28 6 38 8 40
13 17 3 -11 9 -25 14 -31z m969 -64 c0 -5 -8 -10 -17 -10 -15 0 -16 2 -3 10
19 12 20 12 20 0z"/>
<path d="M3461 8475 c-1 -11 -4 -30 -7 -42 -4 -15 -2 -23 6 -23 12 0 49 39 50
53 0 4 -9 7 -19 7 -11 0 -22 6 -24 13 -3 6 -6 3 -6 -8z"/>
<path d="M3378 8433 c-10 -2 -18 -12 -18 -21 0 -9 -3 -27 -6 -39 -4 -16 -2
-23 7 -23 16 0 40 33 51 68 6 22 2 25 -34 15z"/>
<path d="M3500 8319 c0 -23 1 -40 3 -38 2 2 11 16 20 31 16 26 16 28 -3 38
-19 10 -20 8 -20 -31z"/>
<path d="M3423 8303 c-15 -5 -18 -73 -3 -73 13 0 30 34 30 59 0 21 -5 24 -27
14z"/>
<path d="M3283 8250 c0 -35 12 -39 28 -9 9 17 8 23 -2 30 -22 14 -26 11 -26
-21z"/>
<path d="M3200 8216 c0 -8 -3 -23 -7 -33 -5 -14 -1 -13 20 6 32 29 34 41 7 41
-11 0 -20 -6 -20 -14z"/>
<path d="M3775 8220 c-3 -5 -2 -10 4 -10 5 0 13 5 16 10 3 6 2 10 -4 10 -5 0
-13 -4 -16 -10z"/>
<path d="M3550 8177 l0 -42 20 30 c25 37 25 41 0 48 -18 5 -20 0 -20 -36z"/>
<path d="M3320 8135 c0 -22 -3 -50 -6 -62 -10 -36 10 -27 34 16 25 44 26 51
11 51 -7 0 -18 8 -25 18 -12 15 -13 12 -14 -23z"/>
<path d="M3467 8163 c-4 -3 -7 -19 -7 -34 0 -22 4 -26 20 -22 14 4 20 14 20
34 0 27 -17 39 -33 22z"/>
<path d="M3228 8099 c-22 -12 -25 -79 -5 -79 25 0 48 25 53 58 4 26 2 32 -13
32 -10 0 -26 -5 -35 -11z"/>
<path d="M3458 8083 c7 -3 16 -2 19 1 4 3 -2 6 -13 5 -11 0 -14 -3 -6 -6z"/>
<path d="M3080 8016 c0 -25 2 -46 4 -46 5 0 48 72 44 75 -2 1 -13 6 -25 9 -22
7 -23 4 -23 -38z"/>
<path d="M3455 8024 c-13 -10 -15 -14 -4 -14 20 0 43 16 32 23 -4 3 -17 -1
-28 -9z"/>
<path d="M3003 8003 c-14 -5 -18 -63 -5 -63 16 0 29 16 34 43 5 27 -2 31 -29
20z"/>
<path d="M2576 7755 c-9 -26 -7 -32 5 -12 6 10 9 21 6 23 -2 3 -7 -2 -11 -11z"/>
<path d="M3085 7760 c3 -5 10 -10 16 -10 5 0 9 5 9 10 0 6 -7 10 -16 10 -8 0
-12 -4 -9 -10z"/>
<path d="M3618 7758 c-32 -11 -43 -49 -33 -111 9 -54 13 -59 34 -47 11 5 21
26 25 49 3 22 14 44 23 49 15 9 15 12 -3 39 -17 26 -22 29 -46 21z"/>
<path d="M2655 7740 c-3 -6 1 -7 9 -4 18 7 21 14 7 14 -6 0 -13 -4 -16 -10z"/>
<path d="M3423 7693 c-20 -7 -26 -68 -13 -122 l12 -49 23 20 c13 11 21 26 18
33 -5 14 13 56 29 66 5 3 4 17 -3 32 -12 26 -35 33 -66 20z"/>
<path d="M3873 7664 c-17 -56 -16 -75 3 -41 8 15 14 40 12 55 -3 24 -4 23 -15
-14z"/>
<path d="M3847 7677 c-4 -10 -7 -26 -7 -35 1 -15 2 -15 11 1 6 10 9 25 7 35
-3 16 -4 15 -11 -1z"/>
<path d="M3264 7637 c-27 -8 -33 -16 -38 -47 -3 -21 -2 -50 4 -65 5 -14 11
-38 11 -53 1 -18 3 -21 6 -9 4 14 8 15 18 7 10 -9 21 -8 41 3 33 17 42 57 11
49 -14 -4 -16 -7 -5 -13 7 -5 9 -9 3 -9 -28 0 -36 16 -23 46 7 16 17 32 22 36
7 4 5 17 -4 36 -14 26 -18 28 -46 19z"/>
<path d="M2676 7611 c-4 -5 3 -7 14 -4 23 6 26 13 6 13 -8 0 -17 -4 -20 -9z"/>
<path d="M2493 7580 c-35 -14 -27 -20 10 -8 17 6 34 13 36 14 8 7 -24 3 -46
-6z"/>
<path d="M3088 7578 c-20 -7 -29 -19 -34 -43 -6 -33 16 -149 24 -125 4 10 6
10 12 0 6 -9 15 -8 39 4 39 20 43 51 6 42 -14 -4 -25 -4 -25 -2 0 11 25 61 33
67 7 5 -18 71 -26 68 -1 0 -14 -5 -29 -11z"/>
<path d="M2920 7520 c-16 -4 -27 -16 -33 -37 -12 -39 1 -153 14 -132 6 10 11
11 17 3 14 -22 63 9 68 43 2 10 -3 10 -17 2 -32 -17 -39 -1 -17 40 18 33 19
41 7 63 -11 19 -19 23 -39 18z"/>
<path d="M2734 7462 c-25 -16 -35 -75 -23 -130 9 -36 15 -49 21 -40 8 10 11
10 15 1 3 -10 11 -9 34 2 36 19 39 45 4 45 -23 0 -24 2 -12 28 6 15 16 30 21
34 5 4 4 19 -4 37 -12 30 -33 39 -56 23z"/>
<path d="M3643 7429 c-19 -7 -23 -16 -23 -53 0 -40 2 -44 21 -39 25 7 31 21
27 66 -3 31 -5 34 -25 26z"/>
<path d="M2569 7399 c-34 -13 -43 -56 -28 -125 11 -51 12 -52 31 -35 10 10 21
28 23 40 7 39 17 66 27 72 9 6 -10 60 -21 58 -3 0 -18 -5 -32 -10z"/>
<path d="M2398 7338 c-33 -11 -44 -64 -25 -125 11 -37 14 -40 30 -28 10 7 20
22 22 34 2 12 11 36 19 53 14 28 14 32 -2 52 -14 19 -22 21 -44 14z"/>
<path d="M2220 7279 c-34 -14 -34 -14 -14 -48 18 -31 34 -40 34 -20 0 7 10 9
25 5 29 -7 32 5 13 47 -14 29 -20 31 -58 16z"/>
<path d="M3360 7030 c-13 -8 -12 -10 3 -10 9 0 17 5 17 10 0 12 -1 12 -20 0z"/>
<path d="M3614 7022 c-6 -4 -11 -26 -11 -49 0 -38 3 -43 24 -43 21 0 23 4 23
50 0 49 -9 60 -36 42z"/>
<path d="M2404 7012 c-14 -9 -27 -92 -15 -92 31 0 41 14 41 56 0 44 -5 50 -26
36z"/>
<path d="M3278 7003 c7 -3 16 -2 19 1 4 3 -2 6 -13 5 -11 0 -14 -3 -6 -6z"/>
<path d="M3238 6993 c7 -3 16 -2 19 1 4 3 -2 6 -13 5 -11 0 -14 -3 -6 -6z"/>
<path d="M3040 6970 c-8 -5 -24 -11 -35 -15 -16 -5 -17 -8 -5 -15 12 -8 7 -17
-26 -52 -56 -59 -77 -91 -40 -58 16 14 43 40 60 58 21 22 58 43 111 63 44 16
67 27 51 24 -15 -3 -41 -9 -57 -12 -18 -3 -29 -1 -29 6 0 13 -9 13 -30 1z"/>
<path d="M2945 6920 c-3 -5 -1 -10 4 -10 6 0 11 5 11 10 0 6 -2 10 -4 10 -3 0
-8 -4 -11 -10z"/>
<path d="M1171 6844 c0 -11 3 -14 6 -6 3 7 2 16 -1 19 -3 4 -6 -2 -5 -13z"/>
<path d="M1191 6848 c0 -9 -4 -25 -7 -35 -5 -17 -5 -17 6 0 6 10 9 25 7 35 -4
15 -5 15 -6 0z"/>
<path d="M2865 6770 c-10 -11 -14 -20 -8 -20 5 0 18 9 28 20 10 11 14 20 8 20
-5 0 -18 -9 -28 -20z"/>
<path d="M1315 6620 c3 -5 11 -10 16 -10 6 0 7 5 4 10 -3 6 -11 10 -16 10 -6
0 -7 -4 -4 -10z"/>
<path d="M2354 6610 c-26 -10 -35 -100 -9 -100 19 0 37 44 33 81 -3 22 -6 25
-24 19z"/>
<path d="M1352 6590 c0 -14 2 -19 5 -12 2 6 2 18 0 25 -3 6 -5 1 -5 -13z"/>
<path d="M3298 6578 c-31 -8 -38 -15 -38 -35 0 -21 3 -23 23 -17 56 17 67 25
67 44 0 22 1 22 -52 8z"/>
<path d="M3593 6583 c-8 -3 -13 -25 -13 -60 0 -46 3 -54 16 -49 9 3 20 6 25 6
5 0 9 25 9 55 0 55 -5 61 -37 48z"/>
<path d="M2830 6523 c0 -10 4 -14 8 -8 4 6 11 13 16 18 5 4 2 7 -7 7 -10 0
-17 -8 -17 -17z"/>
<path d="M3145 6533 c-30 -7 -45 -23 -45 -45 0 -15 4 -18 18 -13 9 3 30 9 45
12 21 4 27 11 25 26 -3 23 -13 27 -43 20z"/>
<path d="M3710 6490 c-13 -8 -12 -13 7 -32 25 -24 40 -19 28 9 -5 10 -7 21 -7
26 3 10 -10 9 -28 -3z"/>
<path d="M2685 6480 c-3 -6 1 -7 9 -4 18 7 21 14 7 14 -6 0 -13 -4 -16 -10z"/>
<path d="M2983 6479 c-26 -8 -33 -15 -33 -35 0 -22 3 -24 23 -18 56 17 67 25
67 44 0 22 -8 23 -57 9z"/>
<path d="M3280 6481 c-8 -6 -17 -8 -20 -6 -3 2 -4 -25 -2 -60 l4 -63 39 17
c43 18 53 35 14 25 -21 -5 -24 -3 -19 10 4 9 9 14 12 12 11 -12 32 18 32 45 0
23 -4 29 -22 29 -13 0 -30 -4 -38 -9z"/>
<path d="M3143 6444 l-41 -15 -4 -60 c-1 -32 -1 -59 2 -59 3 0 21 16 41 34 26
24 39 46 44 75 4 23 5 41 3 40 -1 0 -22 -7 -45 -15z"/>
<path d="M2835 6426 c-29 -8 -40 -17 -40 -31 0 -14 6 -19 19 -17 43 8 66 22
66 42 0 11 -1 20 -2 19 -2 0 -21 -6 -43 -13z"/>
<path d="M1398 6388 c9 -9 15 -9 24 0 9 9 7 12 -12 12 -19 0 -21 -3 -12 -12z"/>
<path d="M2973 6389 c-31 -9 -32 -10 -32 -74 0 -36 2 -65 4 -65 3 0 20 8 40
17 37 18 49 39 15 28 -29 -9 -25 10 5 23 20 9 25 19 25 47 0 37 -4 39 -57 24z"/>
<path d="M3420 6376 c0 -29 11 -38 30 -25 10 6 11 9 3 9 -7 0 -13 9 -13 20 0
11 -4 20 -10 20 -5 0 -10 -11 -10 -24z"/>
<path d="M2673 6379 c-26 -8 -33 -15 -33 -35 0 -22 3 -24 23 -18 56 17 67 25
67 44 0 22 -8 23 -57 9z"/>
<path d="M2834 6344 c-35 -13 -43 -20 -47 -47 -2 -18 -3 -34 -1 -36 1 -2 16 6
32 18 17 12 35 21 41 21 6 0 11 6 12 13 0 6 2 20 4 30 2 9 3 17 2 16 -1 0 -21
-7 -43 -15z"/>
<path d="M3165 6340 c-3 -5 -1 -10 4 -10 6 0 11 5 11 10 0 6 -2 10 -4 10 -3 0
-8 -4 -11 -10z"/>
<path d="M2017 6320 c-3 -13 3 -24 20 -35 28 -19 47 -10 20 9 -9 7 -17 18 -17
24 0 20 -18 22 -23 2z"/>
<path d="M2056 6331 c-3 -5 1 -12 10 -15 27 -11 37 -7 24 9 -14 17 -26 19 -34
6z"/>
<path d="M3167 6295 c-3 -11 -11 -50 -18 -87 -10 -54 -17 -69 -33 -74 -90 -25
-559 -175 -565 -180 -3 -3 1 -10 9 -17 9 -8 11 -8 6 0 -4 8 49 29 166 66 194
62 373 117 380 117 3 0 3 -26 2 -57 -3 -49 -2 -53 5 -24 16 62 46 110 81 130
27 16 30 21 15 21 -17 1 -15 3 8 16 16 9 27 18 24 21 -3 2 -14 0 -25 -6 -24
-13 -32 -6 -33 28 0 14 -4 35 -8 46 l-8 20 -6 -20z"/>
<path d="M1577 6293 c-4 -4 -34 -6 -68 -5 -67 2 -71 -11 -8 -28 44 -12 99 3
99 27 0 14 -13 17 -23 6z"/>
<path d="M1960 6285 c0 -8 5 -15 10 -15 6 0 10 7 10 15 0 8 -4 15 -10 15 -5 0
-10 -7 -10 -15z"/>
<path d="M2664 6288 c-30 -10 -30 -11 -31 -75 0 -44 3 -63 11 -59 41 17 66 32
66 39 0 5 -9 5 -20 2 -11 -3 -20 -2 -20 4 0 5 8 12 19 16 11 3 21 19 25 37 11
54 9 55 -50 36z"/>
<path d="M3681 6224 c0 -11 3 -14 6 -6 3 7 2 16 -1 19 -3 4 -6 -2 -5 -13z"/>
<path d="M1970 6220 c0 -5 5 -10 11 -10 5 0 7 5 4 10 -3 6 -8 10 -11 10 -2 0
-4 -4 -4 -10z"/>
<path d="M1656 6195 c8 -19 -45 -33 -56 -14 -6 10 -16 5 -38 -19 -29 -31 -26
-56 4 -32 19 17 96 -12 137 -51 17 -16 34 -29 40 -29 6 0 0 9 -12 20 l-23 19
25 6 c17 5 27 16 31 36 3 18 12 29 23 30 16 0 15 2 -2 9 -30 13 -38 12 -31 -6
5 -12 2 -15 -10 -10 -9 3 -27 9 -40 12 -15 4 -24 13 -24 25 0 10 -7 19 -15 19
-8 0 -12 -6 -9 -15z"/>
<path d="M1840 6200 c0 -5 5 -10 10 -10 6 0 10 5 10 10 0 6 -4 10 -10 10 -5 0
-10 -4 -10 -10z"/>
<path d="M3588 6185 c-3 -14 -1 -25 3 -25 5 0 9 11 9 25 0 14 -2 25 -4 25 -2
0 -6 -11 -8 -25z"/>
<path d="M3540 6170 c0 -13 -7 -20 -20 -20 -11 0 -20 -4 -20 -9 0 -6 11 -6 29
0 22 8 28 15 24 30 -7 25 -13 24 -13 -1z"/>
<path d="M3495 6170 c3 -5 8 -10 11 -10 2 0 4 5 4 10 0 6 -5 10 -11 10 -5 0
-7 -4 -4 -10z"/>
<path d="M2293 6162 c-6 -4 -15 -31 -19 -60 -6 -48 -5 -52 12 -45 27 10 34 23
34 71 0 42 -5 48 -27 34z"/>
<path d="M1835 6132 c-3 -8 -12 -11 -20 -8 -11 4 -17 -3 -22 -24 -3 -17 -12
-30 -19 -30 -8 0 -14 -5 -14 -11 0 -6 18 -9 45 -8 24 2 47 0 51 -3 3 -4 16 -3
27 2 12 5 31 11 41 15 15 4 17 8 8 17 -7 7 -12 22 -12 34 0 18 -7 23 -40 26
-27 2 -41 -1 -45 -10z"/>
<path d="M1967 6134 c-11 -11 5 -34 25 -34 14 0 18 5 14 16 -3 9 -6 18 -6 20
0 6 -26 5 -33 -2z"/>
<path d="M3500 6098 c0 -16 5 -28 10 -28 13 0 13 20 0 40 -8 12 -10 9 -10 -12z"/>
<path d="M3550 6089 c0 -5 5 -7 10 -4 6 3 10 8 10 11 0 2 -4 4 -10 4 -5 0 -10
-5 -10 -11z"/>
<path d="M1609 6048 c-33 -11 -43 -52 -28 -113 10 -39 13 -43 33 -36 14 6 20
15 18 30 -2 13 3 24 15 28 10 3 26 15 36 25 18 19 18 20 1 40 -28 30 -46 36
-75 26z m11 -98 c0 -5 -2 -10 -4 -10 -3 0 -8 5 -11 10 -3 6 -1 10 4 10 6 0 11
-4 11 -10z"/>
<path d="M3498 6003 c7 -3 16 -2 19 1 4 3 -2 6 -13 5 -11 0 -14 -3 -6 -6z"/>
<path d="M3112 5970 c0 -14 2 -19 5 -12 2 6 2 18 0 25 -3 6 -5 1 -5 -13z"/>
<path d="M3413 5983 c-13 -3 -23 -12 -23 -21 0 -10 3 -13 8 -7 4 6 18 16 32
22 26 12 21 13 -17 6z"/>
<path d="M1672 5916 c7 -8 15 -12 17 -11 5 6 -10 25 -20 25 -5 0 -4 -6 3 -14z"/>
<path d="M3238 5923 c7 -3 16 -2 19 1 4 3 -2 6 -13 5 -11 0 -14 -3 -6 -6z"/>
<path d="M3130 5891 c0 -5 9 -7 20 -4 11 3 20 7 20 9 0 2 -9 4 -20 4 -11 0
-20 -4 -20 -9z"/>
<path d="M1742 5868 c-6 -6 -12 -21 -13 -32 0 -20 -1 -20 -11 2 -11 22 -23 28
-32 14 -10 -16 23 -57 46 -57 16 0 24 -7 26 -24 2 -14 0 -21 -7 -17 -7 4 -9 1
-5 -8 3 -8 12 -12 20 -9 9 3 14 -1 14 -12 0 -9 -4 -14 -9 -10 -13 8 -41 -35
-41 -63 0 -21 3 -23 29 -17 28 6 30 4 37 -32 8 -43 8 -67 1 -138 -3 -27 -3
-39 -1 -25 3 14 10 29 15 34 5 6 9 22 9 36 0 24 7 29 78 52 42 15 105 34 140
44 65 19 76 28 42 37 -11 3 -20 12 -20 20 0 9 9 19 20 22 22 7 26 35 9 66 -8
16 -17 18 -43 13 -32 -5 -35 -4 -46 30 -19 58 -60 41 -60 -24 0 -30 -5 -39
-26 -49 -15 -6 -35 -9 -45 -6 -13 5 -19 1 -19 -10 0 -12 -6 -15 -22 -9 -13 3
-23 7 -23 8 -1 0 -7 15 -14 31 -8 17 -13 48 -12 70 2 48 -18 82 -37 63z m340
-170 c-7 -7 -12 -8 -12 -2 0 14 12 26 19 19 2 -3 -1 -11 -7 -17z"/>
<path d="M3775 5838 c-33 -12 -55 -23 -49 -25 6 -2 8 -17 6 -35 -3 -23 -12
-34 -33 -42 -32 -11 -36 -23 -16 -49 11 -15 17 -16 57 -4 40 11 45 17 54 51 5
24 16 40 27 43 22 6 23 16 9 44 -9 16 -7 21 12 29 45 18 -8 8 -67 -12z"/>
<path d="M2975 5840 c-3 -6 1 -7 9 -4 18 7 21 14 7 14 -6 0 -13 -4 -16 -10z"/>
<path d="M3060 5814 c0 -31 23 -28 28 4 2 15 -2 22 -12 22 -11 0 -16 -9 -16
-26z"/>
<path d="M2876 5811 c-4 -5 3 -7 14 -4 23 6 26 13 6 13 -8 0 -17 -4 -20 -9z"/>
<path d="M3678 5803 c7 -3 16 -2 19 1 4 3 -2 6 -13 5 -11 0 -14 -3 -6 -6z"/>
<path d="M3593 5781 c-52 -15 -53 -17 -53 -53 0 -34 -4 -39 -35 -52 -32 -14
-34 -17 -23 -36 7 -11 22 -20 34 -20 27 0 84 20 82 28 -1 4 2 22 6 40 5 22 13
32 27 32 21 0 24 12 9 40 -8 15 -6 21 7 29 24 14 8 12 -54 -8z"/>
<path d="M2725 5765 c-25 -12 -26 -14 -5 -9 28 7 60 23 45 23 -5 0 -23 -6 -40
-14z"/>
<path d="M2182 5740 c0 -14 2 -19 5 -12 2 6 2 18 0 25 -3 6 -5 1 -5 -13z"/>
<path d="M2807 5753 c-4 -3 -7 -15 -7 -25 0 -26 24 -17 28 10 3 21 -8 29 -21
15z"/>
<path d="M2616 5731 c-4 -5 3 -7 14 -4 23 6 26 13 6 13 -8 0 -17 -4 -20 -9z"/>
<path d="M3388 5718 c-36 -9 -38 -12 -38 -48 0 -35 -3 -39 -35 -50 -19 -6 -35
-15 -35 -18 1 -17 29 -42 46 -41 27 1 84 23 83 32 -2 31 15 67 32 67 10 0 19
4 19 10 0 14 -22 60 -29 59 -3 -1 -23 -6 -43 -11z"/>
<path d="M2130 5711 c0 -5 9 -7 20 -4 11 3 20 7 20 9 0 2 -9 4 -20 4 -11 0
-20 -4 -20 -9z"/>
<path d="M3105 5710 c-8 -13 5 -13 25 0 13 8 13 10 -2 10 -9 0 -20 -4 -23 -10z"/>
<path d="M2478 5683 c7 -3 16 -2 19 1 4 3 -2 6 -13 5 -11 0 -14 -3 -6 -6z"/>
<path d="M3288 5683 c7 -3 16 -2 19 1 4 3 -2 6 -13 5 -11 0 -14 -3 -6 -6z"/>
<path d="M2550 5654 c0 -28 15 -25 23 6 3 13 0 20 -9 20 -8 0 -14 -10 -14 -26z"/>
<path d="M3230 5670 c-14 -5 -79 -25 -145 -45 l-121 -37 4 -34 c4 -31 1 -36
-27 -47 -34 -12 -38 -24 -18 -50 11 -15 17 -16 57 -4 39 11 45 17 53 49 12 51
42 60 72 22 23 -29 23 -29 67 -14 31 11 44 21 46 37 2 12 14 33 28 46 20 21
23 29 15 50 -7 18 -7 27 2 31 20 8 -6 5 -33 -4z m-79 -88 c-6 -11 -22 -22 -36
-25 -21 -4 -28 0 -36 21 -11 30 -12 28 37 46 36 12 39 12 42 -5 2 -10 -1 -27
-7 -37z"/>
<path d="M2225 5610 c-16 -7 -17 -9 -3 -9 9 -1 20 4 23 9 7 11 7 11 -20 0z"/>
<path d="M3718 5613 c7 -3 16 -2 19 1 4 3 -2 6 -13 5 -11 0 -14 -3 -6 -6z"/>
<path d="M2297 5593 c-4 -3 -7 -15 -7 -25 0 -26 24 -17 28 10 3 21 -8 29 -21
15z"/>
<path d="M2110 5570 c-18 -12 -2 -12 25 0 13 6 15 9 5 9 -8 0 -22 -4 -30 -9z"/>
<path d="M2855 5553 c-71 -24 -71 -25 -71 -61 1 -33 -3 -38 -32 -47 -35 -10
-39 -19 -18 -41 29 -28 106 -7 106 30 1 25 22 56 39 56 8 0 11 12 9 31 -3 28
1 33 32 45 19 7 28 12 20 12 -8 0 -47 -11 -85 -25z"/>
<path d="M1960 5525 c-19 -7 -28 -14 -20 -14 8 0 29 6 45 14 39 17 21 18 -25
0z"/>
<path d="M1871 5499 c-13 -5 -22 -12 -19 -14 3 -3 20 1 39 9 37 17 19 21 -20
5z"/>
<path d="M2639 5487 c-32 -9 -36 -14 -37 -45 -2 -41 -4 -44 -42 -57 -29 -10
-29 -10 -11 -34 18 -23 19 -23 62 -9 37 12 45 20 52 50 5 23 16 38 28 41 16 4
17 9 8 36 -6 17 -14 30 -17 30 -4 -1 -23 -6 -43 -12z"/>
<path d="M2480 5439 c-14 -6 -52 -18 -85 -29 -33 -11 -48 -18 -33 -15 14 3 33
8 42 11 12 5 16 0 16 -19 0 -53 -71 -81 -86 -34 -5 12 -7 26 -6 31 2 5 -5 5
-15 2 -10 -4 -30 -10 -45 -13 -22 -4 -27 -12 -33 -49 -3 -24 -12 -44 -18 -44
-7 0 -22 -3 -33 -6 -17 -5 -24 0 -32 25 -6 17 -17 31 -24 30 -27 -1 -73 -24
-74 -36 -1 -7 -2 -24 -2 -37 -2 -17 -11 -27 -32 -35 -34 -11 -37 -22 -14 -42
30 -25 104 -3 104 29 0 10 10 29 22 42 l22 23 22 -27 c13 -14 29 -26 37 -26
28 0 77 22 77 36 0 27 24 64 42 64 10 0 23 -9 30 -20 7 -11 22 -20 33 -20 47
0 67 13 86 56 10 24 23 44 29 44 5 0 9 16 7 35 -1 19 -4 34 -7 34 -3 -1 -16
-5 -30 -10z"/>
<path d="M1782 5390 c0 -14 2 -19 5 -12 2 6 2 18 0 25 -3 6 -5 1 -5 -13z"/>
<path d="M3606 5303 c-3 -54 -11 -208 -16 -343 -6 -135 -15 -340 -20 -455 -6
-116 -10 -231 -10 -255 0 -48 14 -80 27 -66 4 5 2 11 -5 13 -9 4 -11 32 -7
116 3 62 15 317 26 567 16 351 24 460 35 477 19 30 18 43 -5 43 -16 0 -19 -11
-25 -97z"/>
<path d="M3200 5270 c-69 -22 -151 -47 -183 -56 l-58 -17 27 -22 c34 -27 28
-47 -21 -76 -30 -18 -35 -26 -31 -48 13 -72 17 -173 9 -274 -7 -98 -8 -105
-13 -57 -4 42 -8 14 -18 -120 -19 -255 -41 -518 -47 -572 -6 -52 -9 -50 78
-33 42 8 45 12 51 65 3 33 5 35 72 52 90 23 88 23 81 -17 -4 -26 -2 -35 9 -35
10 0 14 12 14 39 0 39 11 50 55 57 51 9 53 12 53 102 1 51 -3 81 -8 73 -4 -8
-7 -19 -6 -25 2 -6 1 -8 -1 -3 -7 11 -37 9 -50 -4 -8 -8 -13 -8 -17 0 -9 14
-26 14 -26 0 0 -5 5 -7 10 -4 6 3 10 0 10 -8 0 -10 -7 -13 -19 -10 -11 3 -21
-2 -24 -11 -10 -25 -45 -20 -50 7 -4 19 -4 18 -6 -5 -1 -25 -4 -27 -24 -19
-13 5 -30 5 -38 1 -8 -6 -17 -4 -22 3 -6 8 -7 5 -3 -7 4 -10 2 -24 -3 -30 -5
-6 -11 -22 -14 -36 -2 -14 -5 2 -6 36 -1 56 1 62 24 72 14 6 25 15 24 19 -1 5
-1 27 0 49 1 44 12 53 84 68 15 4 27 13 27 21 0 8 -1 15 -2 15 -2 0 -25 -7
-52 -15 -55 -17 -78 -19 -58 -6 8 4 13 11 13 15 -1 3 -1 21 -1 40 0 32 3 35
50 50 27 9 55 15 61 14 6 -2 14 4 16 12 4 13 3 13 -6 0 -9 -13 -11 -12 -11 3
0 10 5 17 12 15 12 -4 13 -163 2 -224 -3 -17 0 -24 11 -24 8 0 16 3 16 8 1 4
3 16 4 27 10 79 10 79 68 95 43 12 52 36 10 25 -76 -18 -70 -21 -67 30 1 26 4
48 6 50 2 1 24 12 51 23 l47 21 0 87 c0 78 -2 85 -17 79 -10 -4 -28 -10 -41
-12 -12 -3 -25 -9 -28 -14 -3 -5 -20 -9 -38 -9 -17 0 -37 -5 -43 -11 -5 -5
-33 -16 -60 -23 l-51 -14 14 27 c8 14 14 38 14 54 0 21 6 30 28 37 15 6 35 14
44 20 10 5 25 7 34 3 12 -4 15 -3 10 5 -4 7 -2 12 3 12 6 0 11 -22 11 -51 0
-67 22 -61 33 8 8 52 31 73 76 73 11 0 22 7 25 16 5 14 1 15 -26 9 -18 -4 -44
-10 -57 -13 -21 -4 -23 -2 -18 19 4 13 7 33 7 44 0 14 11 24 38 33 20 7 43 14
50 14 7 1 12 16 12 37 0 20 3 53 6 74 6 35 5 37 -22 38 -23 1 -24 3 -7 6 14 3
24 14 27 31 7 35 5 112 -3 111 -3 0 -62 -18 -131 -39z m63 -127 c-7 -2 -19 -2
-25 0 -7 3 -2 5 12 5 14 0 19 -2 13 -5z m-70 -73 c3 -11 1 -20 -4 -20 -5 0 -9
9 -9 20 0 11 2 20 4 20 2 0 6 -9 9 -20z m-26 -185 c-6 -15 -94 -38 -109 -29
-7 4 -5 10 6 16 9 5 16 19 16 32 0 16 11 28 43 44 l42 22 3 -36 c2 -20 1 -42
-1 -49z m79 -173 c-18 -16 -18 -16 -6 6 6 13 14 21 18 18 3 -4 -2 -14 -12 -24z
m-115 -9 c0 -5 2 -23 3 -40 3 -22 -1 -33 -9 -33 -8 0 -12 14 -11 40 0 22 4 40
8 40 5 0 8 -3 9 -7z m39 -13 c0 -5 -4 -10 -10 -10 -5 0 -10 5 -10 10 0 6 5 10
10 10 6 0 10 -4 10 -10z m-84 -25 c-11 -8 -22 -12 -25 -9 -6 6 19 24 34 24 6
-1 1 -7 -9 -15z m98 -11 c3 -8 2 -12 -4 -9 -6 3 -10 1 -10 -5 0 -6 -5 -8 -10
-5 -8 5 -7 11 1 21 14 18 16 17 23 -2z m-257 -96 c-2 -18 -4 -6 -4 27 0 33 2
48 4 33 2 -15 2 -42 0 -60z m-10 -140 c-2 -18 -4 -4 -4 32 0 36 2 50 4 33 2
-18 2 -48 0 -65z m-10 -130 c-2 -18 -4 -6 -4 27 0 33 2 48 4 33 2 -15 2 -42 0
-60z m279 -57 c-18 -19 -66 -34 -66 -20 0 4 9 11 20 14 11 4 18 11 15 16 -4 5
6 9 21 9 26 0 26 -1 10 -19z m-289 -58 c-2 -16 -4 -5 -4 22 0 28 2 40 4 28 2
-13 2 -35 0 -50z m206 25 c-7 -13 -33 -9 -33 5 0 8 3 16 6 20 8 8 33 -16 27
-25z m-220 -189 c-4 -4 -6 15 -3 44 l5 52 3 -44 c2 -24 0 -47 -5 -52z"/>
<path d="M2870 5170 c-8 -5 -10 -10 -5 -10 6 0 17 5 25 10 8 5 11 10 5 10 -5
0 -17 -5 -25 -10z"/>
<path d="M3698 5143 c-10 -2 -18 -12 -19 -21 0 -9 -3 -41 -5 -71 -5 -52 -5
-53 18 -47 13 3 26 6 31 6 4 0 7 32 7 70 0 39 -3 69 -7 69 -5 -1 -16 -3 -25
-6z"/>
<path d="M2156 5093 c-6 -14 -5 -15 5 -6 7 7 10 15 7 18 -3 3 -9 -2 -12 -12z"/>
<path d="M2305 5000 c-13 -6 -15 -9 -5 -9 8 0 22 4 30 9 18 12 2 12 -25 0z"/>
<path d="M2933 4860 c0 -36 2 -50 4 -32 2 17 2 47 0 65 -2 17 -4 3 -4 -33z"/>
<path d="M3673 4713 c-9 -3 -13 -28 -13 -74 0 -49 4 -69 13 -69 27 0 36 18 43
83 6 62 5 67 -12 66 -11 0 -25 -3 -31 -6z"/>
<path d="M2751 4624 c0 -11 3 -14 6 -6 3 7 2 16 -1 19 -3 4 -6 -2 -5 -13z"/>
<path d="M2882 4555 c0 -16 2 -22 5 -12 2 9 2 23 0 30 -3 6 -5 -1 -5 -18z"/>
<path d="M2872 4415 c0 -16 2 -22 5 -12 2 9 2 23 0 30 -3 6 -5 -1 -5 -18z"/>
<path d="M2863 4305 c0 -22 2 -30 4 -17 2 12 2 30 0 40 -3 9 -5 -1 -4 -23z"/>
<path d="M2301 4274 c0 -11 3 -14 6 -6 3 7 2 16 -1 19 -3 4 -6 -2 -5 -13z"/>
<path d="M3670 4270 c-19 -5 -24 -12 -25 -38 -1 -23 4 -32 15 -32 28 0 42 17
38 47 -3 25 -6 28 -28 23z"/>
<path d="M3865 4210 c-3 -5 -1 -10 4 -10 6 0 11 5 11 10 0 6 -2 10 -4 10 -3 0
-8 -4 -11 -10z"/>
<path d="M2291 4194 c0 -11 3 -14 6 -6 3 7 2 16 -1 19 -3 4 -6 -2 -5 -13z"/>
<path d="M2852 4180 c0 -14 2 -19 5 -12 2 6 2 18 0 25 -3 6 -5 1 -5 -13z"/>
<path d="M3741 4174 c0 -11 3 -14 6 -6 3 7 2 16 -1 19 -3 4 -6 -2 -5 -13z"/>
<path d="M2841 4044 c0 -11 3 -14 6 -6 3 7 2 16 -1 19 -3 4 -6 -2 -5 -13z"/>
<path d="M2290 3953 c0 -43 5 -41 13 5 4 18 2 32 -3 32 -6 0 -10 -16 -10 -37z"/>
<path d="M612 8245 c0 -16 2 -22 5 -12 2 9 2 23 0 30 -3 6 -5 -1 -5 -18z"/>
<path d="M875 7580 c-3 -6 1 -7 9 -4 18 7 21 14 7 14 -6 0 -13 -4 -16 -10z"/>
<path d="M980 7206 c0 -2 7 -7 16 -10 8 -3 12 -2 9 4 -6 10 -25 14 -25 6z"/>
<path d="M1090 7165 c0 -9 6 -12 15 -9 8 4 12 10 9 15 -8 14 -24 10 -24 -6z"/>
<path d="M992 7130 c0 -14 2 -19 5 -12 2 6 2 18 0 25 -3 6 -5 1 -5 -13z"/>
<path d="M1082 7105 c-11 -13 -9 -15 14 -15 22 0 25 2 14 15 -15 18 -12 18
-28 0z"/>
<path d="M2571 4324 c0 -11 3 -14 6 -6 3 7 2 16 -1 19 -3 4 -6 -2 -5 -13z"/>
<path d="M200 9592 c0 -5 9 -19 20 -32 13 -15 20 -18 20 -9 -1 25 -40 65 -40
41z"/>
<path d="M4642 9555 c0 -16 2 -22 5 -12 2 9 2 23 0 30 -3 6 -5 -1 -5 -18z"/>
<path d="M177 9535 c-5 -10 0 -15 14 -15 12 0 19 5 17 12 -6 18 -25 20 -31 3z"/>
<path d="M4663 9523 c-1 -19 1 -22 8 -12 11 17 12 39 2 39 -5 0 -9 -12 -10
-27z"/>
<path d="M4641 9474 c0 -11 3 -14 6 -6 3 7 2 16 -1 19 -3 4 -6 -2 -5 -13z"/>
<path d="M4681 9454 c0 -11 3 -14 6 -6 3 7 2 16 -1 19 -3 4 -6 -2 -5 -13z"/>
<path d="M4723 9160 c0 -25 2 -35 4 -22 2 12 2 32 0 45 -2 12 -4 2 -4 -23z"/>
<path d="M351 9103 c-12 -13 -11 -14 6 -9 16 5 22 1 27 -20 7 -25 8 -26 21 -8
19 25 18 30 -2 38 -10 3 -22 8 -28 11 -5 2 -16 -3 -24 -12z"/>
<path d="M4721 9054 c0 -11 3 -14 6 -6 3 7 2 16 -1 19 -3 4 -6 -2 -5 -13z"/>
<path d="M430 9050 c0 -5 7 -10 16 -10 8 0 12 5 9 10 -3 6 -10 10 -16 10 -5 0
-9 -4 -9 -10z"/>
<path d="M4640 9000 c0 -22 5 -40 10 -40 6 0 10 18 10 40 0 22 -4 40 -10 40
-5 0 -10 -18 -10 -40z"/>
<path d="M4802 8745 c0 -16 2 -22 5 -12 2 9 2 23 0 30 -3 6 -5 -1 -5 -18z"/>
<path d="M4822 8740 c0 -14 2 -19 5 -12 2 6 2 18 0 25 -3 6 -5 1 -5 -13z"/>
<path d="M4812 8540 c0 -14 2 -19 5 -12 2 6 2 18 0 25 -3 6 -5 1 -5 -13z"/>
<path d="M4831 8494 c0 -11 3 -14 6 -6 3 7 2 16 -1 19 -3 4 -6 -2 -5 -13z"/>
<path d="M4802 8390 c0 -19 2 -27 5 -17 2 9 2 25 0 35 -3 9 -5 1 -5 -18z"/>
<path d="M4640 8360 c0 -22 5 -40 10 -40 6 0 10 18 10 40 0 22 -4 40 -10 40
-5 0 -10 -18 -10 -40z"/>
<path d="M4841 8254 c0 -11 3 -14 6 -6 3 7 2 16 -1 19 -3 4 -6 -2 -5 -13z"/>
<path d="M4822 8210 c0 -19 2 -27 5 -17 2 9 2 25 0 35 -3 9 -5 1 -5 -18z"/>
<path d="M4802 8185 c0 -16 2 -22 5 -12 2 9 2 23 0 30 -3 6 -5 -1 -5 -18z"/>
<path d="M4841 8094 c0 -11 3 -14 6 -6 3 7 2 16 -1 19 -3 4 -6 -2 -5 -13z"/>
<path d="M4305 7671 c-3 -5 -1 -12 5 -16 5 -3 10 1 10 9 0 18 -6 21 -15 7z"/>
<path d="M4185 7650 c4 -6 11 -8 16 -5 14 9 11 15 -7 15 -8 0 -12 -5 -9 -10z"/>
<path d="M4220 7623 c0 -22 2 -25 10 -13 13 20 13 40 0 40 -5 0 -10 -12 -10
-27z"/>
<path d="M4260 7501 c0 -5 5 -13 10 -16 6 -3 10 -2 10 4 0 5 -4 13 -10 16 -5
3 -10 2 -10 -4z"/>
<path d="M4300 7456 c0 -14 4 -27 8 -30 5 -3 6 8 4 25 -5 35 -12 38 -12 5z"/>
<path d="M4296 7395 c4 -8 8 -15 10 -15 2 0 4 7 4 15 0 8 -4 15 -10 15 -5 0
-7 -7 -4 -15z"/>
<path d="M4360 7311 c0 -6 5 -13 10 -16 6 -3 10 1 10 9 0 9 -4 16 -10 16 -5 0
-10 -4 -10 -9z"/>
<path d="M4891 7294 c0 -11 3 -14 6 -6 3 7 2 16 -1 19 -3 4 -6 -2 -5 -13z"/>
<path d="M3780 4031 c0 -5 9 -7 20 -4 11 3 20 7 20 9 0 2 -9 4 -20 4 -11 0
-20 -4 -20 -9z"/>
<path d="M3640 3809 c-35 -12 -43 -16 -20 -12 40 7 112 32 90 31 -8 0 -40 -8
-70 -19z"/>
<path d="M3546 3729 c-3 -34 -5 -105 -4 -158 1 -86 2 -80 8 53 6 109 11 151
21 157 11 7 11 9 -2 9 -12 0 -18 -14 -23 -61z"/>
<path d="M3124 3648 l-71 -20 -7 -122 c-4 -66 -9 -142 -13 -168 -5 -44 -4 -48
16 -48 21 0 44 36 34 53 -3 5 -2 23 1 42 7 33 26 45 114 71 7 2 11 8 7 13 -3
6 -24 4 -53 -4 -71 -22 -72 -21 -72 38 0 28 4 57 8 62 4 6 34 19 67 30 52 17
60 24 63 48 4 32 2 32 -94 5z"/>
<path d="M2909 3588 l-77 -20 -12 -146 c-6 -81 -13 -157 -15 -169 -4 -24 9
-29 39 -17 12 5 16 20 16 60 0 48 3 55 28 68 15 7 42 17 60 21 17 3 32 12 32
19 0 11 -10 10 -52 0 -29 -8 -57 -14 -63 -14 -12 0 -5 96 8 117 4 6 31 19 61
28 51 16 65 31 66 68 0 9 0 9 -91 -15z"/>
<path d="M3624 3572 c-6 -4 -14 -35 -17 -69 -4 -54 -3 -63 11 -63 32 0 40 15
45 78 3 52 2 62 -12 62 -9 0 -21 -4 -27 -8z"/>
<path d="M3528 3360 c-2 -61 0 -110 5 -110 4 0 7 50 7 110 0 61 -2 110 -4 110
-3 0 -6 -50 -8 -110z"/>
<path d="M3524 3130 c0 -58 1 -81 3 -52 2 28 2 76 0 105 -2 28 -3 5 -3 -53z"/>
<path d="M3092 3131 c-34 -10 -66 -21 -69 -25 -3 -3 -10 -56 -14 -118 -5 -62
-10 -134 -12 -160 -3 -39 -1 -48 12 -48 17 1 58 28 54 35 -2 3 -3 26 -3 51 0
38 3 45 16 40 8 -3 13 -2 10 3 -3 5 14 14 39 20 52 13 64 37 13 27 -18 -4 -49
-10 -68 -13 -34 -6 -34 -5 -18 13 10 12 14 29 11 47 -7 35 25 65 79 73 28 5
38 11 38 24 0 10 3 25 6 34 8 21 -12 20 -94 -3z"/>
<path d="M3514 2900 c0 -58 1 -81 3 -52 2 28 2 76 0 105 -2 28 -3 5 -3 -53z"/>
<path d="M3504 2680 c0 -58 1 -81 3 -52 2 28 2 76 0 105 -2 28 -3 5 -3 -53z"/>
<path d="M3064 2617 l-82 -22 -6 -55 c-3 -30 -8 -111 -12 -179 l-7 -123 24 7
c41 13 50 26 47 69 -4 49 23 82 77 92 19 3 35 12 35 19 0 10 -16 9 -70 -5 -72
-18 -83 -17 -52 6 10 8 12 13 5 14 -7 0 -13 5 -13 11 0 5 4 8 9 5 5 -3 11 3
14 14 3 10 0 22 -7 25 -8 3 -8 7 2 11 6 3 12 12 12 19 0 14 57 35 93 35 13 0
17 9 17 40 0 22 -1 40 -2 39 -2 -1 -40 -11 -84 -22z m11 -27 c-11 -5 -27 -9
-35 -9 -9 0 -8 4 5 9 11 5 27 9 35 9 9 0 8 -4 -5 -9z"/>
<path d="M3494 2450 c0 -63 1 -89 3 -57 2 31 2 83 0 115 -2 31 -3 5 -3 -58z"/>
<path d="M3583 2533 c-9 -3 -13 -28 -13 -75 0 -60 2 -69 16 -64 9 3 22 6 30 6
11 0 14 16 14 70 0 72 -6 80 -47 63z"/>
<path d="M3477 2155 c-4 -99 -12 -261 -17 -360 -6 -99 -21 -427 -35 -730 -14
-302 -27 -570 -30 -595 -6 -59 -15 -480 -10 -460 2 8 11 170 20 360 9 190 20
435 25 545 47 1009 61 1331 58 1372 -2 27 -6 -33 -11 -132z"/>
<path d="M3030 2068 c-47 -11 -86 -21 -88 -23 -1 -1 -6 -62 -12 -136 -5 -74
-12 -158 -15 -186 -4 -40 -2 -53 8 -53 28 0 49 26 51 66 1 21 5 44 9 51 4 6 1
13 -5 16 -15 5 75 47 102 47 10 0 22 5 25 10 9 14 -21 12 -85 -4 -30 -8 -56
-13 -58 -11 -8 7 12 57 25 62 12 5 12 7 1 14 -10 7 -10 9 0 9 7 0 12 12 12 29
0 25 5 30 48 41 26 7 51 16 56 21 7 6 20 71 13 68 -1 -1 -40 -10 -87 -21z m35
-18 c-11 -5 -27 -9 -35 -9 -13 -1 -13 0 0 9 8 5 24 9 35 9 l20 0 -20 -9z"/>
<path d="M2780 2006 l-85 -22 -7 -85 c-23 -259 -24 -290 -10 -284 8 3 17 5 22
5 19 0 41 65 35 101 -6 33 -4 37 22 47 23 10 57 17 96 21 4 1 7 7 7 15 0 12
-12 11 -70 -4 l-70 -18 2 24 c1 13 6 24 11 24 4 0 6 4 3 9 -4 5 -1 11 5 13 6
2 15 22 18 43 4 23 12 39 19 38 7 -2 12 1 12 6 0 5 18 11 40 15 31 5 40 11 40
26 0 21 0 21 -75 3 -16 -3 -17 -2 -5 6 8 5 32 13 52 16 21 4 38 11 38 16 0 11
2 12 -100 -15z m-33 -123 c-3 -10 -5 -2 -5 17 0 19 2 27 5 18 2 -10 2 -26 0
-35z"/>
<path d="M2970 1481 l-75 -17 -12 -160 c-17 -230 -17 -234 6 -234 26 0 31 10
37 77 3 32 7 63 9 70 2 7 30 20 62 29 32 9 63 21 68 26 10 10 -4 9 -105 -8
-41 -7 -43 -1 -34 92 l5 51 72 19 c67 18 72 21 73 47 1 32 -1 32 -106 8z m83
-8 c-7 -2 -19 -2 -25 0 -7 3 -2 5 12 5 14 0 19 -2 13 -5z m-46 -9 c-3 -3 -12
-4 -19 -1 -8 3 -5 6 6 6 11 1 17 -2 13 -5z"/>
<path d="M2735 1425 l-90 -20 -17 -195 c-10 -107 -15 -196 -13 -198 2 -3 15
-2 28 2 22 5 25 12 32 80 l7 74 64 18 c35 9 64 21 64 25 0 12 -15 11 -81 -5
l-57 -13 1 34 c1 18 4 33 7 33 3 0 7 21 8 46 1 25 4 49 7 53 2 5 32 14 66 21
59 13 74 24 67 52 -2 12 -19 10 -93 -7z"/>
<path d="M3543 1373 c-22 -4 -23 -9 -23 -84 0 -43 4 -79 9 -79 5 0 21 4 35 10
25 9 26 13 26 85 0 78 1 77 -47 68z"/>
<path d="M2945 867 c-49 -11 -91 -20 -92 -21 -3 -3 -33 -369 -33 -402 0 -27
17 -31 45 -11 15 11 18 26 16 80 -2 75 8 88 87 106 24 5 46 12 49 15 13 12 -4
15 -38 7 -19 -5 -50 -12 -71 -15 l-36 -7 5 83 c3 46 9 87 13 91 4 4 37 13 74
19 44 7 70 17 74 27 3 8 0 17 -7 19 -11 4 -11 6 0 13 27 16 2 15 -86 -4z m45
-17 c-14 -4 -32 -8 -40 -9 -13 -1 -13 0 0 9 8 5 26 9 40 9 l25 -1 -25 -8z"/>
<path d="M2745 823 c-11 -2 -50 -11 -87 -19 l-66 -16 -7 -71 c-3 -40 -12 -134
-18 -210 l-13 -138 31 3 c28 3 31 7 38 53 5 28 8 58 8 68 0 9 4 17 8 17 5 0
11 8 14 19 3 13 21 22 56 31 54 13 85 36 35 26 -16 -3 -51 -8 -78 -12 l-49 -7
6 54 c4 30 7 68 7 85 0 29 2 31 68 44 37 8 70 13 75 12 4 -1 7 7 7 18 0 22
-15 25 -52 11 -39 -14 -100 -23 -94 -13 3 5 37 14 76 21 38 7 70 17 70 22 0 9
-2 9 -35 2z"/>
<path d="M2276 323 c-6 -14 -5 -15 5 -6 7 7 10 15 7 18 -3 3 -9 -2 -12 -12z"/>
<path d="M2896 209 c-49 -10 -91 -21 -93 -23 -2 -2 -7 -45 -10 -95 l-6 -91 31
0 c29 0 31 2 42 58 6 31 12 61 14 67 1 5 27 14 57 20 45 8 55 14 57 33 3 19 0
23 -15 19 -43 -13 -135 -28 -139 -24 -5 4 43 17 123 32 18 4 35 11 38 16 7 11
10 11 -99 -12z m-46 -136 c-11 -17 -11 -17 -6 0 3 10 7 28 7 40 2 22 2 22 6 0
2 -12 -1 -30 -7 -40z"/>
<path d="M2617 150 c-43 -10 -80 -19 -81 -21 -2 -2 -6 -32 -9 -66 l-5 -63 39
0 c38 0 39 1 39 34 0 34 12 45 55 51 53 8 75 24 75 55 0 35 -3 36 -113 10z
m88 -10 c-11 -5 -33 -8 -50 -8 l-30 0 30 8 c17 4 39 8 50 8 l20 1 -20 -9z
m-88 -16 c-3 -3 -12 -4 -19 -1 -8 3 -5 6 6 6 11 1 17 -2 13 -5z"/>
<path d="M3477 53 c-4 -3 -7 -17 -7 -30 0 -20 5 -23 40 -23 38 0 40 2 40 30 0
27 -3 30 -33 30 -19 0 -37 -3 -40 -7z"/>
</g>
</svg>
